<svg width="30" height="31" viewBox="0 0 30 31" fill="none" xmlns="http://www.w3.org/2000/svg">
<path d="M1.865 0.00166523L0 1.86667L4.103 7.61273C4.27573 7.8547 4.50381 8.05188 4.76821 8.18781C5.03261 8.32374 5.32568 8.39449 5.62298 8.39417H5.75353C5.99874 8.39398 6.24158 8.44214 6.46815 8.53591C6.69472 8.62967 6.90058 8.7672 7.07395 8.94061L12.0628 13.9295L7.18212 18.8792C6.34733 18.6335 5.46677 18.5856 4.61028 18.7395C3.75379 18.8934 2.94493 19.2447 2.24788 19.7657C1.55083 20.2866 0.984759 20.9628 0.594569 21.7406C0.204378 22.5184 0.000806055 23.3765 0 24.2467C0.001118 25.0485 0.174571 25.8407 0.508607 26.5697C0.842643 27.2986 1.32946 27.9473 1.93607 28.4716C2.54268 28.996 3.25491 29.3839 4.02451 29.6089C4.79411 29.834 5.6031 29.891 6.39667 29.7761C7.19023 29.6612 7.94983 29.3771 8.624 28.943C9.29817 28.5089 9.87115 27.935 10.3041 27.2601C10.7371 26.5852 11.02 25.8252 11.1336 25.0314C11.2472 24.2377 11.1888 23.4288 10.9625 22.6596L15.9122 17.7788L17.7175 19.5842L17.1487 21.2888C17.0394 21.6173 17.0237 21.9699 17.1034 22.3068C17.1831 22.6438 17.3551 22.9519 17.6 23.1967L23.859 29.4556C24.2087 29.8053 24.683 30.0017 25.1775 30.0017C25.672 30.0017 26.1463 29.8053 26.4961 29.4556L29.454 26.4977C29.8036 26.148 30 25.6737 30 25.1792C30 24.6846 29.8036 24.2104 29.454 23.8606L23.195 17.6017C22.9502 17.3567 22.6421 17.1848 22.3052 17.1051C21.9682 17.0254 21.6157 17.041 21.2871 17.1503L19.5825 17.7192L17.7921 15.9288L22.7903 10.9996C23.6195 11.2209 24.4884 11.2489 25.33 11.0813C26.1717 10.9137 26.9636 10.5551 27.6448 10.033C28.326 9.511 28.8781 8.83951 29.2587 8.07034C29.6393 7.30116 29.8382 6.45485 29.84 5.59667C29.84 5.09498 29.7747 4.60822 29.6498 4.14756L25.6587 8.14053L22.38 7.46167L21.7011 4.18486L25.6941 0.191895C24.7443 -0.0634955 23.7439 -0.0639722 22.7938 0.190513C21.8437 0.444999 20.9774 0.945452 20.2824 1.64143C19.5874 2.3374 19.0881 3.20431 18.8349 4.15475C18.5817 5.10519 18.5836 6.10559 18.8402 7.0551L13.9166 12.0496L8.93895 7.07561C8.58917 6.72594 8.39261 6.25165 8.3925 5.75706V5.62464C8.39253 5.32766 8.32164 5.03496 8.18572 4.77091C8.0498 4.50686 7.85278 4.27908 7.61107 4.10653L1.865 0.00166523ZM19.8548 19.8565C19.9414 19.7696 20.0443 19.7007 20.1576 19.6537C20.2709 19.6067 20.3923 19.5825 20.515 19.5825C20.6377 19.5825 20.7591 19.6067 20.8724 19.6537C20.9857 19.7007 21.0886 19.7696 21.1752 19.8565L26.7702 25.4515C26.8569 25.5382 26.9257 25.6411 26.9726 25.7544C27.0195 25.8676 27.0437 25.9891 27.0437 26.1117C27.0437 26.2343 27.0195 26.3557 26.9726 26.469C26.9257 26.5823 26.8569 26.6852 26.7702 26.7719C26.6835 26.8586 26.5806 26.9274 26.4673 26.9743C26.354 27.0212 26.2326 27.0453 26.11 27.0453C25.9874 27.0453 25.866 27.0212 25.7527 26.9743C25.6394 26.9274 25.5365 26.8586 25.4498 26.7719L19.8548 21.1769C19.768 21.0903 19.6991 20.9874 19.652 20.8741C19.605 20.7608 19.5808 20.6393 19.5808 20.5167C19.5808 20.394 19.605 20.2726 19.652 20.1593C19.6991 20.046 19.768 19.9431 19.8548 19.8565ZM5.595 20.5167L6.47342 20.968L7.46 21.0165L7.99526 21.8464L8.82518 22.3817L8.87367 23.3683L9.325 24.2467L8.87367 25.1251L8.82518 26.1117L7.99526 26.6469L7.46 27.4769L6.47342 27.5253L5.595 27.9767L4.71659 27.5253L3.73 27.4769L3.19475 26.6469L2.36482 26.1117L2.31633 25.1251L1.865 24.2467L2.31633 23.3683L2.36482 22.3817L3.19475 21.8464L3.73 21.0165L4.71659 20.968L5.595 20.5167Z" fill="#5D5FEF"/>
</svg>
