<svg width="45" height="40" viewBox="0 0 45 40" fill="none" xmlns="http://www.w3.org/2000/svg">
<path d="M8.28772 34.2983C8.02759 34.2979 7.77039 34.2494 7.53249 34.1559C7.29458 34.0623 7.08118 33.9258 6.90585 33.755C6.72735 33.5856 6.59114 33.3846 6.50615 33.1652C6.42117 32.9458 6.38933 32.7128 6.41272 32.4817L6.8721 27.9917L28.0934 9.13501L34.7252 15.0283L13.5096 33.8833L8.45835 34.2917C8.40163 34.2963 8.34469 34.2985 8.28772 34.2983ZM36.049 13.85L29.419 7.95667L33.3959 4.42167C33.57 4.26671 33.7768 4.14378 34.0044 4.05991C34.232 3.97603 34.476 3.93286 34.7224 3.93286C34.9688 3.93286 35.2128 3.97603 35.4404 4.05991C35.668 4.14378 35.8748 4.26671 36.049 4.42167L40.0259 7.95667C40.2002 8.11146 40.3385 8.29528 40.4328 8.49761C40.5272 8.69994 40.5758 8.91681 40.5758 9.13584C40.5758 9.35487 40.5272 9.57174 40.4328 9.77407C40.3385 9.9764 40.2002 10.1602 40.0259 10.315L36.0508 13.8483L36.049 13.85Z" fill="#5D5FEF"/>
</svg>
