<svg width="450" height="400" viewBox="0 0 450 400" fill="none" xmlns="http://www.w3.org/2000/svg">
<g clip-path="url(#clip0_907_63)">
<path d="M20.9097 381.158C27.1517 393.484 40.3993 398.776 40.3993 398.776C40.3993 398.776 43.5268 384.082 37.2848 371.756C31.0429 359.43 17.7952 354.139 17.7952 354.139C17.7952 354.139 14.6678 368.832 20.9097 381.158Z" fill="#2F2E41"/>
<path d="M25.2003 377.102C36.4696 384.322 40.8097 398.661 40.8097 398.661C40.8097 398.661 26.8787 401.296 15.6095 394.077C4.34016 386.858 0 372.518 0 372.518C0 372.518 13.931 369.883 25.2003 377.102Z" fill="#6C63FF"/>
<path d="M293.931 60.9155H292.927V70.809H293.931V60.9155Z" fill="black"/>
<path d="M356.709 84.981H355.705V94.8744H356.709V84.981Z" fill="black"/>
<path d="M349.678 333.119H348.674V343.012H349.678V333.119Z" fill="black"/>
<path d="M364.244 251.297H363.239V261.19H364.244V251.297Z" fill="black"/>
<path d="M181.839 375.514H62.917V374.603H180.983V330.419H72.9144L67.6646 318.774L68.436 318.379L73.4528 329.508H181.839V375.514Z" fill="#2F2E41"/>
<path d="M78.744 397.833C83.7054 397.833 87.7273 393.55 87.7273 388.268C87.7273 382.985 83.7054 378.702 78.744 378.702C73.7827 378.702 69.7607 382.985 69.7607 388.268C69.7607 393.55 73.7827 397.833 78.744 397.833Z" fill="#3F3D56"/>
<path d="M167.294 397.833C172.255 397.833 176.277 393.55 176.277 388.268C176.277 382.985 172.255 378.702 167.294 378.702C162.332 378.702 158.311 382.985 158.311 388.268C158.311 393.55 162.332 397.833 167.294 397.833Z" fill="#3F3D56"/>
<path d="M271.671 191.037C274.743 191.037 277.233 188.386 277.233 185.116C277.233 181.845 274.743 179.194 271.671 179.194C268.6 179.194 266.11 181.845 266.11 185.116C266.11 188.386 268.6 191.037 271.671 191.037Z" fill="#3F3D56"/>
<path d="M194.557 315.388H60.8885L31.9658 214.723H224.343L224.168 215.315L194.557 315.388ZM61.5214 314.477H193.929L223.177 215.634H33.1222L61.5214 314.477Z" fill="#2F2E41"/>
<path d="M226.74 205.73L225.913 205.496L231.559 182.838H264.399V183.749H232.217L226.74 205.73Z" fill="#2F2E41"/>
<path d="M214.73 245.241H41.3125V246.152H214.73V245.241Z" fill="#2F2E41"/>
<path d="M204.799 278.804H50.9561V279.715H204.799V278.804Z" fill="#2F2E41"/>
<path d="M128.58 215.178H127.725V314.932H128.58V215.178Z" fill="#2F2E41"/>
<path d="M166.885 215.15L160.743 314.901L161.597 314.961L167.739 215.209L166.885 215.15Z" fill="#2F2E41"/>
<path d="M89.4379 215.149L88.584 215.208L94.6898 314.962L95.5437 314.903L89.4379 215.149Z" fill="#2F2E41"/>
<path d="M450 398.411H0V399.481H450V398.411Z" fill="#2F2E41"/>
<path d="M299.034 33.09C299.034 33.09 306.376 55.3402 301.858 58.7633C297.34 62.1864 317.106 90.1418 317.106 90.1418L340.826 83.2955L327.837 59.9043C327.837 59.9043 326.142 36.5131 326.142 33.09C326.142 29.6669 299.034 33.09 299.034 33.09Z" fill="#A0616A"/>
<path opacity="0.1" d="M299.034 33.09C299.034 33.09 306.376 55.3402 301.858 58.7633C297.34 62.1864 317.106 90.1418 317.106 90.1418L340.826 83.2955L327.837 59.9043C327.837 59.9043 326.142 36.5131 326.142 33.09C326.142 29.6669 299.034 33.09 299.034 33.09Z" fill="black"/>
<path d="M286.711 191.694C286.711 191.694 284.568 220.22 286.711 235.053C288.854 249.887 292.069 290.964 292.069 290.964C292.069 290.964 292.069 368.555 303.857 369.696C315.644 370.837 324.217 371.978 325.289 367.413C326.36 362.849 319.931 360.567 323.145 358.285C326.36 356.003 327.432 348.016 323.145 338.888C318.859 329.759 323.145 237.335 323.145 237.335L343.506 295.528C343.506 295.528 345.649 343.452 347.792 350.298C349.935 357.144 345.649 369.696 353.15 370.837C360.651 371.978 369.224 365.131 373.51 362.849C377.796 360.567 367.081 360.567 369.224 359.426C371.367 358.285 377.796 354.862 375.653 353.721C373.51 352.58 371.367 297.81 371.367 297.81C371.367 297.81 365.473 180.854 357.972 176.29C350.471 171.726 345.649 179.587 345.649 179.587L286.711 191.694Z" fill="#2F2E41"/>
<path d="M305.999 365.131V374.26C305.999 374.26 296.355 399.073 305.999 399.073C315.644 399.073 323.145 401.644 323.145 398.221V367.413L305.999 365.131Z" fill="#2F2E41"/>
<path d="M369.224 365.115V374.243C369.224 374.243 378.868 399.057 369.224 399.057C359.579 399.057 352.078 401.628 352.078 398.205V367.397L369.224 365.115Z" fill="#2F2E41"/>
<path d="M314.037 49.6351C324.69 49.6351 333.325 40.4397 333.325 29.0965C333.325 17.7533 324.69 8.55786 314.037 8.55786C303.384 8.55786 294.748 17.7533 294.748 29.0965C294.748 40.4397 303.384 49.6351 314.037 49.6351Z" fill="#A0616A"/>
<path d="M308.143 67.3208C308.143 67.3208 313.501 84.4363 322.074 81.0132L330.647 77.5901L345.649 187.13C345.649 187.13 333.861 205.386 316.716 193.976C299.57 182.565 308.143 67.3208 308.143 67.3208Z" fill="#6C63FF"/>
<path d="M323.146 63.8979L327.968 53.0581C327.968 53.0581 356.365 67.321 360.651 71.8852C364.938 76.4493 364.938 83.2955 364.938 83.2955L357.436 111.821C357.436 111.821 359.58 174.578 359.58 176.86C359.58 179.143 367.081 191.694 361.723 187.13C356.365 182.566 355.293 178.002 351.007 184.848C346.721 191.694 337.076 199.681 337.076 199.681L323.146 63.8979Z" fill="#3F3D56"/>
<path d="M360.651 146.052L357.436 178.001C357.436 178.001 338.148 196.258 342.434 197.399C346.72 198.54 348.864 193.976 348.864 193.976C348.864 193.976 356.365 201.963 360.651 197.399C364.937 192.835 375.653 149.475 375.653 149.475L360.651 146.052Z" fill="#A0616A"/>
<path d="M314.447 0.0694524C310.171 -0.0933185 305.595 -0.173835 301.99 2.27981C300.331 3.51119 298.876 5.02775 297.685 6.76743C294.173 11.4941 291.139 17.4412 292.444 23.3057L293.958 22.6766C293.958 24.242 293.632 25.7878 293.002 27.2022C293.215 26.5417 293.929 27.6095 293.738 28.2776L292.069 34.107C294.813 33.0362 298.225 35.2043 298.643 38.2835C298.833 31.5125 299.493 23.7484 304.651 19.7837C307.253 17.7843 310.545 17.174 313.712 16.632C316.635 16.132 319.698 15.6551 322.497 16.6795C325.296 17.7038 327.679 20.7518 327.045 23.83C328.335 23.3566 329.779 24.3143 330.416 25.5993C331.054 26.8844 331.088 28.4003 331.107 29.8535C332.483 30.8888 334.048 28.8331 334.609 27.1416C335.925 23.1712 337.095 18.9448 336.386 14.8026C335.677 10.6604 332.507 6.70194 328.553 6.6879C329.033 6.12655 329.289 5.38844 329.267 4.62967L326.008 4.33645C326.835 4.2117 327.596 3.78453 328.16 3.12809C326.851 4.66126 316.563 0.149996 314.447 0.0694524Z" fill="#2F2E41"/>
<path d="M313.501 60.4747C313.501 60.4747 304.778 51.3723 301.638 51.9299C298.499 52.4875 294.212 60.4747 294.212 60.4747C294.212 60.4747 268.494 69.603 269.566 78.7313C270.637 87.8596 282.425 132.36 282.425 132.36C282.425 132.36 292.069 185.989 283.496 191.694C274.924 197.399 324.217 212.232 325.288 205.386C326.36 198.54 328.503 130.078 325.288 119.809C322.074 109.539 313.501 60.4747 313.501 60.4747Z" fill="#3F3D56"/>
<path d="M351.007 78.7314H364.257C364.257 78.7314 373.51 122.091 374.582 126.655C375.653 131.219 377.797 152.899 376.725 152.899C375.653 152.899 354.222 148.335 354.222 151.758L351.007 78.7314Z" fill="#3F3D56"/>
<path d="M350.558 186.104H299.832C294.882 161.857 294.468 138.43 299.832 116.047H350.558C342.372 138.027 341.86 161.294 350.558 186.104Z" fill="#C4C4C4"/>
<path d="M279.21 156.322L294.212 163.168C294.212 163.168 323.145 167.733 323.145 155.181C323.145 142.63 294.212 149.476 294.212 149.476L284.567 146.192L279.21 156.322Z" fill="#A0616A"/>
<path d="M282.425 71.8853L269.566 75.3084L259.921 135.783C259.921 135.783 256.707 151.758 262.064 152.899C267.422 154.04 282.425 163.168 282.425 163.168C282.425 163.168 284.568 146.053 288.854 146.053L278.138 136.924L284.568 96.9881L282.425 71.8853Z" fill="#3F3D56"/>
</g>
<defs>
<clipPath id="clip0_907_63">
<rect width="450" height="400" fill="white"/>
</clipPath>
</defs>
</svg>
