<svg width="513" height="36" viewBox="0 0 513 36" fill="none" xmlns="http://www.w3.org/2000/svg">
<line y1="17.75" x2="180" y2="17.75" stroke="black" stroke-width="0.5"/>
<line x1="333" y1="17.75" x2="513" y2="17.75" stroke="black" stroke-width="0.5"/>
<path d="M241.031 21.3906C241.031 19.7135 241.354 18.2188 242 16.9062C242.646 15.5938 243.573 14.5781 244.781 13.8594C246 13.1406 247.411 12.7812 249.016 12.7812C251.297 12.7812 253.156 13.4792 254.594 14.875C256.042 16.2708 256.849 18.1667 257.016 20.5625L257.047 21.7188C257.047 24.3125 256.323 26.3958 254.875 27.9688C253.427 29.5312 251.484 30.3125 249.047 30.3125C246.609 30.3125 244.661 29.5312 243.203 27.9688C241.755 26.4062 241.031 24.2812 241.031 21.5938V21.3906ZM245.547 21.7188C245.547 23.3229 245.849 24.5521 246.453 25.4062C247.057 26.25 247.922 26.6719 249.047 26.6719C250.141 26.6719 250.995 26.2552 251.609 25.4219C252.224 24.5781 252.531 23.2344 252.531 21.3906C252.531 19.8177 252.224 18.599 251.609 17.7344C250.995 16.8698 250.13 16.4375 249.016 16.4375C247.911 16.4375 247.057 16.8698 246.453 17.7344C245.849 18.5885 245.547 19.9167 245.547 21.7188ZM269.328 17.3281C268.714 17.2448 268.172 17.2031 267.703 17.2031C265.995 17.2031 264.875 17.7812 264.344 18.9375V30H259.828V13.0938H264.094L264.219 15.1094C265.125 13.5573 266.38 12.7812 267.984 12.7812C268.484 12.7812 268.953 12.849 269.391 12.9844L269.328 17.3281Z" fill="black"/>
</svg>
