<svg width="44" height="40" viewBox="0 0 44 40" fill="none" xmlns="http://www.w3.org/2000/svg">
<g clip-path="url(#clip0)">
<path d="M39.9277 16.4286H26.6185C26.1861 16.4286 25.8356 16.1087 25.8356 15.7143V3.57143C25.8356 1.59912 24.0828 0 21.9211 0C19.7593 0 18.0066 1.59912 18.0066 3.57143V15.7143C18.0066 16.1087 17.6561 16.4286 17.2237 16.4286H3.91448C1.75272 16.4286 0 18.0277 0 20C0 21.9723 1.75272 23.5714 3.91448 23.5714H17.2237C17.6561 23.5714 18.0066 23.8913 18.0066 24.2857V36.4286C18.0066 38.4009 19.7593 40 21.9211 40C24.0828 40 25.8356 38.4009 25.8356 36.4286V24.2857C25.8356 23.8913 26.1861 23.5714 26.6185 23.5714H39.9277C42.0894 23.5714 43.8422 21.9723 43.8422 20C43.8422 18.0277 42.0894 16.4286 39.9277 16.4286Z" fill="#5D5FEF"/>
</g>
<defs>
<clipPath id="clip0">
<rect width="43.8422" height="40" fill="white"/>
</clipPath>
</defs>
</svg>
