<svg width="36" height="40" viewBox="0 0 36 40" fill="none" xmlns="http://www.w3.org/2000/svg">
<path d="M32.1966 5H24.6612V3.75C24.6612 1.67891 22.821 0 20.551 0H15.0707C12.8007 0 10.9605 1.67891 10.9605 3.75V5H3.42517C1.53353 5 0 6.39914 0 8.125V10.625C0 11.3154 0.613362 11.875 1.37007 11.875H34.2517C35.0084 11.875 35.6218 11.3154 35.6218 10.625V8.125C35.6218 6.39914 34.0882 5 32.1966 5ZM13.7007 3.75C13.7007 3.06094 14.3155 2.5 15.0707 2.5H20.551C21.3063 2.5 21.9211 3.06094 21.9211 3.75V5H13.7007V3.75Z" fill="#FF0000"/>
<path d="M2.6 14.375C2.35553 14.375 2.16073 14.5614 2.17237 14.7842L3.30268 36.4281C3.40714 38.4312 5.21049 40 7.40774 40H28.2139C30.4111 40 32.2145 38.4312 32.319 36.4281L33.4493 14.7842C33.4609 14.5614 33.2661 14.375 33.0216 14.375H2.6ZM23.2911 17.5C23.2911 16.8094 23.9042 16.25 24.6612 16.25C25.4181 16.25 26.0312 16.8094 26.0312 17.5V33.75C26.0312 34.4406 25.4181 35 24.6612 35C23.9042 35 23.2911 34.4406 23.2911 33.75V17.5ZM16.4408 17.5C16.4408 16.8094 17.0539 16.25 17.8108 16.25C18.5678 16.25 19.1809 16.8094 19.1809 17.5V33.75C19.1809 34.4406 18.5678 35 17.8108 35C17.0539 35 16.4408 34.4406 16.4408 33.75V17.5ZM9.59042 17.5C9.59042 16.8094 10.2035 16.25 10.9605 16.25C11.7175 16.25 12.3306 16.8094 12.3306 17.5V33.75C12.3306 34.4406 11.7175 35 10.9605 35C10.2035 35 9.59042 34.4406 9.59042 33.75V17.5Z" fill="#FF0000"/>
</svg>
