<svg width="24" height="24" viewBox="0 0 24 24" fill="none" xmlns="http://www.w3.org/2000/svg">
<path d="M11 11H13V8H16V6H13V3H11V6H8V8H11V11ZM7 20C5.9 20 5.01 20.9 5.01 22C5.01 23.1 5.9 24 7 24C8.1 24 9 23.1 9 22C9 20.9 8.1 20 7 20ZM17 20C15.9 20 15.01 20.9 15.01 22C15.01 23.1 15.9 24 17 24C18.1 24 19 23.1 19 22C19 20.9 18.1 20 17 20ZM7.17 16.75L7.2 16.63L8.1 15H15.55C16.3 15 16.96 14.59 17.3 13.97L21.16 6.96L19.42 6H19.41L18.31 8L15.55 13H8.53L8.4 12.73L6.16 8L5.21 6L4.27 4H1V6H3L6.6 13.59L5.25 16.04C5.09 16.32 5 16.65 5 17C5 18.1 5.9 19 7 19H19V17H7.42C7.29 17 7.17 16.89 7.17 16.75Z" fill="#5D5FEF"/>
</svg>
