<svg width="16" height="16" viewBox="0 0 16 16" fill="none" xmlns="http://www.w3.org/2000/svg">
<path d="M13.4978 0.794987L13.6468 0.645987C13.759 0.533904 13.8921 0.445008 14.0386 0.384374C14.1851 0.32374 14.3421 0.292556 14.5007 0.292603C14.6592 0.292649 14.8162 0.323925 14.9627 0.384645C15.1092 0.445364 15.2422 0.534339 15.3543 0.646487C15.4664 0.758636 15.5553 0.891763 15.6159 1.03827C15.6766 1.18477 15.7077 1.34178 15.7077 1.50034C15.7077 1.6589 15.6764 1.81589 15.6157 1.96236C15.5549 2.10883 15.466 2.2419 15.3538 2.35399L15.2048 2.50199C15.4597 2.78785 15.5956 3.16038 15.5846 3.54322C15.5736 3.92605 15.4167 4.29019 15.1458 4.56099L4.85382 14.854C4.78948 14.918 4.70893 14.9633 4.62082 14.985L0.620816 15.985C0.537108 16.0058 0.449432 16.0047 0.366309 15.9816C0.283186 15.9585 0.207444 15.9144 0.146447 15.8534C0.0854489 15.7924 0.0412701 15.7166 0.0182047 15.6335C-0.00486067 15.5504 -0.00602807 15.4627 0.014816 15.379L1.01482 11.379C1.0367 11.2912 1.08197 11.2111 1.14582 11.147L10.7878 1.50499C10.6914 1.43712 10.5741 1.40551 10.4566 1.41576C10.3391 1.42601 10.229 1.47745 10.1458 1.56099L6.85382 4.85399C6.80733 4.90048 6.75214 4.93735 6.6914 4.96251C6.63066 4.98767 6.56556 5.00062 6.49982 5.00062C6.43407 5.00062 6.36897 4.98767 6.30823 4.96251C6.24749 4.93735 6.1923 4.90048 6.14582 4.85399C6.09933 4.8075 6.06245 4.75231 6.03729 4.69157C6.01213 4.63083 5.99918 4.56573 5.99918 4.49999C5.99918 4.43424 6.01213 4.36914 6.03729 4.3084C6.06245 4.24766 6.09933 4.19248 6.14582 4.14599L9.43982 0.853987C9.71079 0.583003 10.0752 0.426008 10.4583 0.415223C10.8414 0.404437 11.214 0.540679 11.4998 0.795987C11.7746 0.550426 12.1301 0.414599 12.4986 0.414415C12.8671 0.414231 13.2228 0.549701 13.4978 0.794987ZM12.8538 1.56099C12.7601 1.46725 12.6329 1.41459 12.5003 1.41459C12.3677 1.41459 12.2406 1.46725 12.1468 1.56099L1.94982 11.756L1.18582 14.813L4.24282 14.049L14.4398 3.85399C14.4864 3.80754 14.5233 3.75237 14.5485 3.69162C14.5737 3.63088 14.5867 3.56575 14.5867 3.49999C14.5867 3.43422 14.5737 3.3691 14.5485 3.30835C14.5233 3.24761 14.4864 3.19243 14.4398 3.14599L12.8548 1.56099H12.8538Z" fill="black"/>
</svg>
