<svg width="24" height="24" viewBox="0 0 24 24" fill="none" xmlns="http://www.w3.org/2000/svg">
<path d="M19.14 14.94C19.18 14.64 19.2 14.33 19.2 14C19.2 13.68 19.18 13.36 19.13 13.06L21.16 11.48C21.2475 11.4079 21.3073 11.3077 21.3292 11.1965C21.351 11.0853 21.3337 10.9699 21.28 10.87L19.36 7.55003C19.3035 7.44959 19.2132 7.3724 19.1053 7.33214C18.9973 7.29187 18.8785 7.29112 18.77 7.33003L16.38 8.29003C15.88 7.91003 15.35 7.59003 14.76 7.35003L14.4 4.81003C14.3823 4.69556 14.3241 4.59123 14.2361 4.516C14.148 4.44077 14.0359 4.39962 13.92 4.40003H10.08C9.84003 4.40003 9.65002 4.57003 9.61002 4.81003L9.25003 7.35003C8.66003 7.59003 8.12003 7.92003 7.63003 8.29003L5.24003 7.33003C5.02003 7.25003 4.77003 7.33003 4.65003 7.55003L2.74003 10.87C2.62003 11.08 2.66003 11.34 2.86003 11.48L4.89003 13.06C4.84003 13.36 4.80003 13.69 4.80003 14C4.80003 14.31 4.82003 14.64 4.87003 14.94L2.84003 16.52C2.75255 16.5921 2.69278 16.6923 2.6709 16.8036C2.64902 16.9148 2.66638 17.0302 2.72003 17.13L4.64003 20.45C4.76003 20.67 5.01003 20.74 5.23003 20.67L7.62003 19.71C8.12003 20.09 8.65002 20.41 9.24003 20.65L9.60003 23.19C9.65003 23.43 9.84003 23.6 10.08 23.6H13.92C14.16 23.6 14.36 23.43 14.39 23.19L14.75 20.65C15.34 20.41 15.88 20.09 16.37 19.71L18.76 20.67C18.98 20.75 19.23 20.67 19.35 20.45L21.27 17.13C21.39 16.91 21.34 16.66 21.15 16.52L19.14 14.94ZM12 17.6C10.02 17.6 8.40002 15.98 8.40002 14C8.40002 12.02 10.02 10.4 12 10.4C13.98 10.4 15.6 12.02 15.6 14C15.6 15.98 13.98 17.6 12 17.6Z" fill="#5D5FEF"/>
</svg>
